<svg xmlns="http://www.w3.org/2000/svg" viewBox="0 0 512 512">
  <defs>
    <linearGradient id="maskBg" x1="0" y1="0" x2="1" y2="1">
      <stop offset="0%" stop-color="#f1f5d7" />
      <stop offset="100%" stop-color="#4a6530" />
    </linearGradient>
  </defs>
  <rect width="512" height="512" fill="url(#maskBg)" />
  <circle cx="256" cy="256" r="164" fill="#25311b" opacity="0.14" />
  <rect x="118" y="120" width="276" height="214" rx="36" fill="#27341e" stroke="#f5edbf" stroke-width="14" />
  <rect x="142" y="146" width="228" height="166" rx="20" fill="#d7e9ba" />
  <path d="M156 278c31-48 72-72 124-72 39 0 74 10 106 29v55H142v-12c0-1 14 0 14 0z" fill="#86a352" />
  <circle cx="250" cy="206" r="44" fill="#47622e" />
  <circle cx="232" cy="194" r="9" fill="#f7f1cd" />
  <circle cx="267" cy="194" r="9" fill="#f7f1cd" />
  <path d="M228 227c13 14 31 14 45 0" fill="none" stroke="#f7f1cd" stroke-linecap="round" stroke-width="9" />
  <rect x="172" y="362" width="168" height="34" rx="17" fill="#27341e" />
</svg>
