<svg xmlns="http://www.w3.org/2000/svg" viewBox="0 0 512 512">
  <defs>
    <linearGradient id="bg" x1="0" y1="0" x2="1" y2="1">
      <stop offset="0%" stop-color="#e6efc6" />
      <stop offset="100%" stop-color="#6f8c52" />
    </linearGradient>
    <linearGradient id="badge" x1="0" y1="0" x2="0" y2="1">
      <stop offset="0%" stop-color="#fff6d6" />
      <stop offset="100%" stop-color="#cfba64" />
    </linearGradient>
  </defs>
  <rect width="512" height="512" rx="104" fill="url(#bg)" />
  <path d="M74 112h364v288H74z" rx="32" fill="#25311b" opacity="0.16" />
  <rect x="92" y="96" width="328" height="248" rx="34" fill="#27341e" stroke="#f2edc6" stroke-width="12" />
  <rect x="116" y="122" width="280" height="196" rx="18" fill="#d6e8b8" />
  <path d="M146 270c26-46 71-74 127-74 46 0 87 14 123 40v58H116v-24c11 4 21 6 30 6z" fill="#88a55a" />
  <circle cx="244" cy="204" r="46" fill="#47622e" />
  <circle cx="226" cy="191" r="10" fill="#f7f1cd" />
  <circle cx="264" cy="191" r="10" fill="#f7f1cd" />
  <path d="M221 228c15 15 37 15 52 0" fill="none" stroke="#f7f1cd" stroke-linecap="round" stroke-width="10" />
  <path d="M164 378h184" stroke="#27341e" stroke-linecap="round" stroke-width="18" />
  <circle cx="140" cy="390" r="26" fill="url(#badge)" stroke="#27341e" stroke-width="10" />
  <circle cx="372" cy="390" r="26" fill="#d0e09d" stroke="#27341e" stroke-width="10" />
</svg>
